<?xml version="1.0" encoding="UTF-8" standalone="no"?>
<!DOCTYPE svg PUBLIC "-//W3C//DTD SVG 1.1//EN" "http://www.w3.org/Graphics/SVG/1.1/DTD/svg11.dtd">
<svg width="100%" height="100%" viewBox="0 0 149 72" version="1.1" xmlns="http://www.w3.org/2000/svg" xmlns:xlink="http://www.w3.org/1999/xlink" xml:space="preserve" xmlns:serif="http://www.serif.com/" style="fill-rule:evenodd;clip-rule:evenodd;stroke-linejoin:round;stroke-miterlimit:0.152439;">
    <g transform="matrix(1,0,0,1,-0.680328,-39.0411)">
        <g transform="matrix(0.222697,0,0,0.17967,-92.0224,0.426956)">
            <path d="M646.856,512.695L691.139,508.413L710.307,421.848L646.856,512.695ZM856.719,511.528L793.889,421.666L812.39,507.346L856.719,511.528ZM749.355,220.483L811.175,301.737L771.206,321.687L778.741,355.805L893.741,312.15L860.877,387.956L844.573,378.879L830.006,384.664L874.991,450.504L924.675,433.204L888.776,505.237L973.193,439.327L940.852,409.598L1079.24,377.197L924.495,530.846L925.362,609.628L784.328,582.174L750.99,508.899L749.808,474.099L748.344,509.656L717.877,584.584L716.074,584.923C711.306,585.818 575.783,609.266 575.783,609.266L575.725,525.76L420.764,376.518L565.661,409.423L535.421,442.528L612.807,506.634L579.962,433.885L625.869,450.552L673.172,383.533L656.411,378.02L642.584,386.617L607.581,311.518L720.748,355.438L724.888,321.621L686.027,301.694L749.355,220.483Z" style="fill:black;fill-rule:nonzero;stroke:none;stroke-width:9.88px;"/>
        </g>
    </g>
</svg>
