<?xml version="1.0" encoding="UTF-8" standalone="no"?>
<!DOCTYPE svg PUBLIC "-//W3C//DTD SVG 1.1//EN" "http://www.w3.org/Graphics/SVG/1.1/DTD/svg11.dtd">
<svg width="100%" height="100%" viewBox="0 0 2682 1646" version="1.1" xmlns="http://www.w3.org/2000/svg" xmlns:xlink="http://www.w3.org/1999/xlink" xml:space="preserve" xmlns:serif="http://www.serif.com/" style="fill-rule:evenodd;clip-rule:evenodd;stroke-linejoin:round;stroke-miterlimit:2;">
    <g transform="matrix(1,0,0,1,-27.0251,-204.805)">
        <g transform="matrix(1.2766,0,0,1.2766,-1868.38,23.927)">
            <g transform="matrix(1,0,0,1,197.483,-84.6357)">
                <path d="M1498.24,236.959L1399.34,236.959L1399.34,1399.33C1399.34,1401.1 1399.38,1402.85 1399.47,1404.59L1399.47,1410.18C1399.47,1411.97 1398.76,1413.68 1397.5,1414.94C1396.24,1416.2 1394.53,1416.91 1392.74,1416.91C1392.74,1416.91 1392.74,1416.91 1392.74,1416.91C1390.96,1416.91 1389.25,1416.2 1387.98,1414.94C1386.72,1413.68 1386.01,1411.97 1386.01,1410.18L1386.01,236.959L1287.24,236.959L1287.24,1399.33C1287.24,1457.47 1334.37,1504.59 1392.5,1504.59L1392.98,1504.59C1413.48,1504.59 1432.61,1498.73 1448.79,1488.6C1464.97,1498.73 1484.1,1504.59 1504.6,1504.59L1505.08,1504.59C1563.22,1504.59 1610.34,1457.47 1610.34,1399.33L1610.34,236.959L1511.57,236.959L1511.57,1410.18C1511.57,1411.97 1510.86,1413.68 1509.6,1414.94C1508.34,1416.2 1506.63,1416.91 1504.84,1416.91C1504.84,1416.91 1504.84,1416.91 1504.84,1416.91C1503.06,1416.91 1501.35,1416.2 1500.08,1414.94C1498.82,1413.68 1498.11,1411.97 1498.11,1410.18L1498.11,1404.59C1498.2,1402.85 1498.24,1401.1 1498.24,1399.33L1498.24,236.959Z"/>
            </g>
            <g transform="matrix(1,0,0,1,197.483,-84.6357)">
                <path d="M1722.57,926.38L1722.57,1410.18C1722.57,1411.97 1723.28,1413.68 1724.54,1414.94C1725.8,1416.2 1727.52,1416.91 1729.3,1416.91C1729.3,1416.91 1729.3,1416.91 1729.3,1416.91C1731.09,1416.91 1732.8,1416.2 1734.06,1414.94C1735.32,1413.68 1736.03,1411.97 1736.03,1410.18L1736.03,939.858L1834.8,939.858L1834.8,1399.33C1834.8,1457.47 1787.67,1504.59 1729.54,1504.59L1729.06,1504.59C1670.93,1504.59 1623.8,1457.47 1623.8,1399.33L1623.8,342.218C1623.8,284.085 1670.93,236.959 1729.06,236.959L1729.54,236.959C1787.67,236.959 1834.8,284.085 1834.8,342.218L1834.8,926.4L1736.03,926.4L1736.03,926.38L1722.57,926.38ZM1736.03,827.611L1722.57,827.611L1722.57,331.367C1722.57,329.582 1723.28,327.871 1724.54,326.609C1725.8,325.347 1727.52,324.639 1729.3,324.639C1729.3,324.639 1729.3,324.639 1729.3,324.639C1731.09,324.639 1732.8,325.347 1734.06,326.609C1735.32,327.871 1736.03,329.582 1736.03,331.367L1736.03,827.611Z"/>
            </g>
            <g transform="matrix(1,0,0,1,1406.92,-91.4505)">
                <path d="M851.564,1412.96L851.564,870.25C850.615,861.173 846.579,852.644 840.066,846.13C832.564,838.629 822.39,834.415 811.782,834.415L753.01,834.415L753.01,834.425L739.553,834.425L739.553,338.181C739.553,336.397 740.261,334.686 741.523,333.424C742.785,332.162 744.496,331.453 746.281,331.453C746.281,331.453 746.282,331.453 746.282,331.453C748.067,331.453 749.778,332.162 751.04,333.424C752.302,334.686 753.01,336.397 753.01,338.181L753.01,820.957L851.564,820.957L851.564,356.17L806.174,356.17C798.662,356.17 792.574,350.081 792.574,342.57L792.574,254.356C778.665,247.578 763.038,243.774 746.523,243.774L746.04,243.774C687.908,243.774 640.782,290.9 640.782,349.033L640.782,893.249C640.782,903.848 644.992,914.014 652.487,921.509C659.983,929.004 670.148,933.215 680.748,933.215L739.553,933.215L739.553,933.195L753.01,933.195L753.01,1417C753.01,1418.79 752.302,1420.5 751.04,1421.76C749.778,1423.02 748.067,1423.73 746.282,1423.73C746.282,1423.73 746.281,1423.73 746.281,1423.73C744.496,1423.73 742.785,1423.02 741.523,1421.76C740.261,1420.5 739.553,1418.79 739.553,1417L739.553,946.673L640.782,946.673L640.782,1406.15C640.782,1464.28 687.908,1511.41 746.04,1511.41L746.523,1511.41C802.365,1511.41 848.051,1467.92 851.564,1412.96Z"/>
            </g>
            <g transform="matrix(1,0,0,1,1406.92,-91.4505)">
                <path d="M963.934,243.8L963.934,243.791L865.164,243.791L865.164,243.8L806.174,243.8L806.174,342.57L865.164,342.57L865.164,1511.39L963.934,1511.39L963.934,342.57L1022.96,342.57L1022.96,243.8L963.934,243.8Z"/>
            </g>
            <g transform="matrix(1,0,0,1,1406.92,-91.4505)">
                <path d="M1135.35,601.11L1135.9,601.11L1135.9,838.917C1135.9,840.689 1136.6,842.389 1137.85,843.643C1139.11,844.896 1140.81,845.6 1142.58,845.6C1142.61,845.6 1142.64,845.6 1142.67,845.6C1144.44,845.6 1146.14,844.896 1147.4,843.643C1148.65,842.389 1149.35,840.689 1149.35,838.917L1149.35,243.8L1248.12,243.787L1248.12,827.701C1248.12,849.99 1241.07,871.552 1228.2,889.4C1241.07,907.248 1248.12,928.81 1248.12,951.099L1248.12,1511.06L1149.35,1511.09L1149.35,939.883C1149.35,938.111 1148.65,936.411 1147.4,935.157C1146.14,933.904 1144.44,933.2 1142.67,933.2C1142.64,933.2 1142.61,933.2 1142.58,933.2C1140.81,933.2 1139.11,933.904 1137.85,935.157C1136.6,936.411 1135.9,938.111 1135.9,939.883L1135.9,1177.69L1135.35,1177.69L1135.35,1511.06L1036.59,1511.06L1036.59,243.791L1135.35,243.791L1135.35,601.11Z"/>
            </g>
            <g transform="matrix(1,0,0,1,1417.19,-91.4505)">
                <path d="M1360.67,466.083L1261.9,466.083L1261.9,1412.33L1251.3,1412.33L1251.3,1511.06L1415.9,1511.06L1415.9,1412.33L1360.67,1412.33L1360.67,466.083Z"/>
            </g>
            <g transform="matrix(0.853994,0,0,0.853994,772.456,-34.2599)">
                <circle cx="2288.84" cy="343.73" r="124.139"/>
                <path d="M2288.84,207.117C2213.44,207.117 2152.22,268.331 2152.22,343.73C2152.22,419.13 2213.44,480.344 2288.84,480.344C2364.24,480.344 2425.45,419.13 2425.45,343.73C2425.45,268.331 2364.24,207.117 2288.84,207.117ZM2288.84,219.591C2357.35,219.591 2412.97,275.216 2412.97,343.73C2412.97,412.245 2357.35,467.87 2288.84,467.87C2220.32,467.87 2164.7,412.245 2164.7,343.73C2164.7,275.216 2220.32,219.591 2288.84,219.591Z" style="fill:rgb(235,235,235);"/>
            </g>
            <g transform="matrix(1,0,0,1,1417.19,-91.4505)">
                <path d="M1484.99,244.022C1487.26,243.874 1489.53,243.8 1491.82,243.8L1491.82,243.8C1519.8,243.8 1546.63,254.915 1566.42,274.7C1586.2,294.485 1597.32,321.319 1597.32,349.299L1597.32,354.706L1597.77,354.706L1597.77,1417.12C1597.77,1418.89 1598.47,1420.59 1599.73,1421.84C1600.98,1423.1 1602.68,1423.8 1604.45,1423.8C1604.48,1423.8 1604.51,1423.8 1604.54,1423.8C1606.32,1423.8 1608.02,1423.1 1609.27,1421.84C1609.99,1421.12 1610.53,1420.24 1610.86,1419.29L1610.86,243.791L1709.63,243.791L1709.63,243.8L1710,243.8L1710,1405.9C1710,1408.84 1709.87,1411.77 1709.63,1414.68L1709.63,1511.39L1610.86,1511.39L1610.86,1511.21C1608.75,1511.34 1606.63,1511.4 1604.5,1511.4L1604.5,1511.4C1576.52,1511.4 1549.68,1500.29 1529.9,1480.5C1510.11,1460.71 1499,1433.88 1499,1405.9L1499,1345.93L1498.55,1345.93L1498.55,338.083C1498.55,336.311 1497.85,334.611 1496.59,333.357C1495.34,332.104 1493.64,331.4 1491.87,331.4C1491.84,331.4 1491.81,331.4 1491.77,331.4C1490,331.4 1488.3,332.104 1487.05,333.357C1485.8,334.611 1485.09,336.311 1485.09,338.083L1485.09,1511.4L1429.49,1511.4C1429.5,1511.3 1429.5,1511.2 1429.5,1511.1L1429.5,1412.33C1429.5,1404.82 1423.41,1398.73 1415.9,1398.73L1386.32,1398.73L1386.32,1306.9L1386.21,1306.9L1386.21,243.791L1484.99,243.791L1484.99,244.022Z"/>
                <path d="M1610.86,1511.39L1709.63,1511.39L1709.63,1414.68C1709.87,1411.77 1710,1408.84 1710,1405.9L1710,243.8L1709.63,243.8L1709.63,243.791L1706.78,243.791C1705.85,238.468 1705.92,233.147 1709.92,233.147C1718.26,233.147 1715.44,242.74 1712.68,249.051C1715.83,243.821 1720.28,237.528 1720.28,243.791C1720.28,243.933 1720.25,244.093 1720.18,244.268L1720.65,243.8L1720.65,1405.9C1720.65,1408.99 1720.53,1412.06 1720.28,1415.12L1720.28,1511.39C1720.28,1517.27 1715.51,1522.04 1709.63,1522.04L1610.86,1522.04L1610.73,1521.88C1608.66,1522 1606.58,1522.05 1604.5,1522.05L1604.5,1522.05C1573.69,1522.05 1544.15,1509.82 1522.36,1488.03C1510.53,1476.2 1501.51,1462.07 1495.74,1446.69L1495.74,1511.4C1495.74,1517.28 1490.98,1522.05 1485.09,1522.05L1429.49,1522.05C1426.62,1522.05 1423.87,1520.9 1421.87,1518.84C1419.87,1516.79 1418.77,1514.01 1418.84,1511.15C1418.84,1511.13 1418.84,1511.12 1418.84,1511.1C1418.84,1511.1 1418.84,1412.33 1418.84,1412.33C1418.84,1410.7 1417.52,1409.38 1415.9,1409.38L1386.32,1409.38C1380.44,1409.38 1375.67,1404.62 1375.67,1398.73L1375.67,1308.38C1375.6,1307.9 1375.56,1307.4 1375.56,1306.9L1375.56,243.791C1375.56,237.907 1380.33,233.137 1386.21,233.137L1484.99,233.137C1479.1,233.137 1474.33,237.907 1474.33,243.791L1386.21,243.791L1386.21,1306.9L1386.32,1306.9L1386.32,1398.73L1415.9,1398.73C1423.41,1398.73 1429.5,1404.82 1429.5,1412.33L1429.5,1511.1C1429.5,1511.2 1429.5,1511.3 1429.49,1511.4L1485.09,1511.4L1485.09,338.083C1485.09,336.311 1485.8,334.611 1487.05,333.357C1488.3,332.104 1490,331.4 1491.77,331.4C1491.81,331.4 1491.84,331.4 1491.87,331.4C1493.64,331.4 1495.34,332.104 1496.59,333.357C1497.85,334.611 1498.55,336.311 1498.55,338.083L1498.55,1345.93L1499,1345.93L1499,1405.9C1499,1433.88 1510.11,1460.71 1529.9,1480.5C1548.67,1499.27 1573.79,1510.24 1600.21,1511.31L1600.21,1511.53L1600.23,1511.83C1600.34,1514.13 1601.07,1515.9 1602.1,1517.27C1604,1520.01 1607.15,1521.81 1610.71,1521.86L1610.69,1521.84C1609.73,1521.72 1604.85,1520.93 1602.1,1517.27C1601.02,1515.71 1600.34,1513.85 1600.23,1511.83L1600.21,1511.32L1600.21,1511.31L1600.57,1511.33L1601.29,1511.35C1603.75,1513.25 1609.64,1520.52 1610.69,1521.84L1610.86,1521.86L1610.86,1511.39ZM1484.63,243.791L1484.29,233.391C1486.79,233.228 1489.3,233.147 1491.82,233.147L1491.82,233.147C1522.63,233.147 1552.17,245.384 1573.95,267.167C1585.54,278.755 1594.43,292.54 1600.21,307.543L1600.21,243.791C1600.21,237.907 1604.98,233.137 1610.86,233.137L1709.63,233.137C1703.75,233.137 1698.98,237.907 1698.98,243.791L1610.86,243.791L1610.86,1419.29C1610.53,1420.24 1609.99,1421.12 1609.27,1421.84C1608.02,1423.1 1606.32,1423.8 1604.54,1423.8C1604.51,1423.8 1604.48,1423.8 1604.45,1423.8C1602.68,1423.8 1600.98,1423.1 1599.73,1421.84C1598.47,1420.59 1597.77,1418.89 1597.77,1417.12L1597.77,354.706L1597.32,354.706L1597.32,349.299C1597.32,321.319 1586.2,294.485 1566.42,274.7C1546.63,254.915 1519.8,243.8 1491.82,243.8L1491.82,243.8C1489.53,243.8 1487.26,243.874 1484.99,244.022L1484.99,243.791L1484.63,243.791ZM1711.3,253.141L1710.28,253.95L1710,254.453L1711.38,253.075L1711.3,253.141ZM1698.98,243.791L1699.89,243.791C1699.32,243.395 1698.98,243.339 1698.98,243.791ZM1474.33,243.791L1475.22,243.791C1474.67,243.401 1474.34,243.347 1474.33,243.791Z" style="fill:rgb(235,235,235);"/>
            </g>
            <g transform="matrix(1,0,0,1,1417.19,-91.4505)">
                <path d="M1839.8,822L1801.9,822L1801.9,920.77L1839.8,920.77C1839.8,921.192 1839.78,921.611 1839.74,922.024L1839.74,1417C1839.74,1418.79 1839.03,1420.5 1837.77,1421.76C1836.51,1423.02 1834.8,1423.73 1833.02,1423.73C1833.01,1423.73 1833.01,1423.73 1833.01,1423.73C1831.23,1423.73 1829.52,1423.02 1828.26,1421.76C1826.99,1420.5 1826.29,1418.79 1826.29,1417L1826.29,934.369L1826.2,934.37L1801.9,934.37C1794.39,934.37 1788.31,928.281 1788.31,920.77L1788.31,822C1788.31,814.489 1794.39,808.4 1801.9,808.4L1826.2,808.4L1826.29,808.401L1826.29,338.181C1826.29,336.397 1826.99,334.686 1828.26,333.424C1829.52,332.162 1831.23,331.453 1833.01,331.453C1833.01,331.453 1833.01,331.453 1833.02,331.453C1834.8,331.453 1836.51,332.162 1837.77,333.424C1839.03,334.686 1839.74,336.397 1839.74,338.181L1839.74,808.509L1938.51,808.509L1938.51,349.033C1938.51,290.9 1891.39,243.774 1833.26,243.774L1832.77,243.774C1774.64,243.774 1727.51,290.9 1727.51,349.033L1727.51,1406.15C1727.51,1464.28 1774.64,1511.41 1832.77,1511.41L1833.26,1511.41C1891.39,1511.41 1938.51,1464.28 1938.51,1406.15L1938.51,821.967L1839.8,821.967L1839.8,822Z"/>
            </g>
            <g transform="matrix(1,0,0,1,1523.74,-84.6357)">
                <path d="M1948.99,926.38L1962.45,926.38L1962.45,1410.18C1962.45,1411.97 1961.74,1413.68 1960.48,1414.94C1959.21,1416.2 1957.5,1416.91 1955.72,1416.91C1955.72,1416.91 1955.72,1416.91 1955.72,1416.91C1953.93,1416.91 1952.22,1416.2 1950.96,1414.94C1949.7,1413.68 1948.99,1411.97 1948.99,1410.18L1948.99,939.858L1850.22,939.858L1850.22,1399.33C1850.22,1457.47 1897.34,1504.59 1955.48,1504.59L1955.96,1504.59C2014.09,1504.59 2061.22,1457.47 2061.22,1399.33L2061.22,858.933C2061.22,841.628 2047.19,827.6 2029.88,827.6C2000.96,827.6 1962.45,827.6 1962.45,827.6L1962.45,827.611L1948.99,827.611L1948.99,331.367C1948.99,329.582 1949.7,327.871 1950.96,326.609C1952.22,325.347 1953.93,324.639 1955.72,324.639C1955.72,324.639 1955.72,324.639 1955.72,324.639C1957.5,324.639 1959.21,325.347 1960.48,326.609C1961.74,327.871 1962.45,329.582 1962.45,331.367L1962.45,814.142L2061.22,814.142L2061.22,342.218C2061.22,284.085 2014.09,236.959 1955.96,236.959L1955.48,236.959C1897.34,236.959 1850.22,284.085 1850.22,342.218L1850.22,895.093C1850.22,912.383 1864.23,926.4 1881.52,926.4L1948.99,926.4L1948.99,926.38Z"/>
            </g>
        </g>
    </g>
</svg>
